<svg width="78" height="39" viewBox="0 0 78 39" fill="none" xmlns="http://www.w3.org/2000/svg">
<path fill-rule="evenodd" clip-rule="evenodd" d="M37.832 14.3475C38.5128 14.7325 39.4156 14.925 40.5405 14.925C41.4286 14.925 42.1243 14.7505 42.6274 14.4017C43.1306 14.0527 43.5006 13.6076 43.7374 13.0662L43.9817 14.7446H45.558V7.50763H41.0067V8.95142H43.2935V9.96204C43.2935 10.696 43.2268 11.3096 43.0936 11.8029C42.9604 12.2961 42.7162 12.6691 42.361 12.9218C42.0059 13.1744 41.5026 13.3008 40.8513 13.3008C40.2002 13.3008 39.6969 13.1865 39.3417 12.9579C38.9865 12.7293 38.7423 12.3804 38.6091 11.9111C38.4907 11.442 38.4315 10.8584 38.4315 10.1606V4.7464C38.4315 4.14484 38.4685 3.60944 38.5425 3.1402C38.6312 2.65894 38.8385 2.27997 39.1641 2.00323C39.5045 1.7265 40.0447 1.58813 40.7848 1.58813C41.4656 1.58813 41.9614 1.69043 42.2722 1.89496C42.5978 2.08746 42.8124 2.38824 42.916 2.7973C43.0197 3.19434 43.0714 3.71173 43.0714 4.34937V4.80054H45.4247V4.25916C45.4247 3.29663 45.2693 2.50256 44.9585 1.87689C44.6477 1.23926 44.1445 0.77002 43.4489 0.469238C42.7681 0.156433 41.8652 0 40.7404 0C39.4823 0 38.498 0.198547 37.7876 0.595581C37.092 0.992615 36.6036 1.57013 36.3224 2.32806C36.056 3.07404 35.9227 3.98242 35.9227 5.05322V9.94403C35.9227 10.9907 36.0708 11.8871 36.3668 12.6331C36.6776 13.379 37.166 13.9505 37.832 14.3475ZM28.8414 14.907C27.5389 14.907 26.5399 14.6964 25.8442 14.2753C25.1487 13.8542 24.675 13.2647 24.4235 12.5067C24.1718 11.7367 24.046 10.8403 24.046 9.81769V0.126343H26.4437V9.9079C26.4437 10.5336 26.4955 11.105 26.5991 11.6224C26.7028 12.1398 26.9247 12.5488 27.2651 12.8496C27.6204 13.1504 28.1458 13.3008 28.8414 13.3008C29.5518 13.3008 30.0773 13.1504 30.4176 12.8496C30.7581 12.5488 30.9801 12.1398 31.0836 11.6224C31.1873 11.105 31.2391 10.5336 31.2391 9.9079V0.126343H33.6146V9.81769C33.6146 10.8403 33.4888 11.7367 33.2372 12.5067C32.9856 13.2647 32.512 13.8542 31.8163 14.2753C31.1355 14.6964 30.1438 14.907 28.8414 14.907ZM0 0.266724V19.7577H3.34497V10.686H5.97949C7.28186 10.686 8.36731 10.4854 9.2356 10.0844C10.1039 9.6673 10.7551 9.08173 11.1892 8.32776C11.6431 7.57379 11.8701 6.68347 11.8701 5.6568C11.8701 4.51782 11.6727 3.5473 11.2781 2.74518C10.8833 1.94305 10.2518 1.3335 9.38354 0.916382C8.53503 0.483276 7.39038 0.266724 5.94983 0.266724H0ZM4.88416 8.73688H3.34497V2.21582H4.91382C6.03857 2.21582 6.86743 2.31207 7.40027 2.50458C7.93311 2.69708 8.27844 3.04193 8.43628 3.53925C8.61389 4.03656 8.70276 4.75043 8.70276 5.68085C8.70276 6.48297 8.58435 7.10858 8.34753 7.55774C8.11072 7.99091 7.71606 8.29572 7.16345 8.47217C6.61096 8.64862 5.8512 8.73688 4.88416 8.73688ZM14.2224 0.266724V19.3165H15.5H37.3784V38.8075H40.6642V19.3165H68.9949V38.8075H71.1621V27.6423C71.5173 27.3856 71.8923 27.1691 72.287 26.9926C72.7014 26.8162 73.0961 26.7279 73.4711 26.7279C74.0236 26.7279 74.3887 26.8643 74.5663 27.137C74.7439 27.4097 74.8326 27.7947 74.8326 28.292V38.8075H78V27.546C78 27.0969 77.921 26.6557 77.7632 26.2226C77.625 25.7894 77.3685 25.4285 76.9935 25.1398C76.6383 24.851 76.1252 24.7066 75.4543 24.7066C74.5859 24.7066 73.7966 24.8671 73.0862 25.1879C72.3757 25.5087 71.7344 25.8937 71.1621 26.3429V19.3165V18L71.1082 17.9998L75 0H73.1068L73.0001 6.10352e-05L70.4718 11.4453H70.4504L67.9771 0H66.0535L63.5496 11.4844H63.4275L60.8932 0H59L62.5725 15H64.3435L66.9084 3.47656H67.0916L69.6565 15H69.6866L69.0256 17.9921L37.3784 17.8748V17.7938L19.1776 17.8074L17.5674 17.8015V0.266724H14.2224ZM52.7323 14.907C51.5187 14.907 50.5492 14.7145 49.824 14.3295C49.0988 13.9445 48.5807 13.397 48.2699 12.6872C47.9591 11.9653 47.8037 11.1231 47.8037 10.1606V4.62006C47.8037 3.65759 47.9591 2.83344 48.2699 2.14764C48.5956 1.44977 49.1135 0.92041 49.824 0.559448C50.5492 0.186462 51.5187 0 52.7323 0C53.9459 0 54.908 0.186462 55.6184 0.559448C56.3289 0.932434 56.8395 1.46185 57.1503 2.14764C57.4758 2.83344 57.6387 3.65759 57.6387 4.62006V10.1786C57.6387 11.1291 57.4758 11.9593 57.1503 12.6691C56.8395 13.379 56.3289 13.9324 55.6184 14.3295C54.908 14.7145 53.9459 14.907 52.7323 14.907ZM52.7323 13.3008C53.3983 13.3008 53.9015 13.1925 54.2419 12.976C54.5824 12.7473 54.8118 12.4345 54.9302 12.0375C55.0486 11.6284 55.1078 11.1532 55.1078 10.6118V4.20502C55.1078 3.66357 55.0486 3.20038 54.9302 2.81537C54.8118 2.41833 54.5824 2.11755 54.2419 1.91302C53.9015 1.69641 53.3983 1.58813 52.7323 1.58813C52.0663 1.58813 51.5557 1.69641 51.2004 1.91302C50.86 2.11755 50.6306 2.41833 50.5122 2.81537C50.3938 3.20038 50.3346 3.66357 50.3346 4.20502V10.6118C50.3346 11.1532 50.3938 11.6284 50.5122 12.0375C50.6306 12.4345 50.86 12.7473 51.2004 12.976C51.5557 13.1925 52.0663 13.3008 52.7323 13.3008ZM49.0131 39C47.6711 39 46.6351 38.7914 45.905 38.3744C45.1748 37.9412 44.6617 37.3156 44.3657 36.4974C44.0895 35.6633 43.9513 34.6446 43.9513 33.4415V30.2651C43.9513 29.0299 44.0994 28.0032 44.3954 27.1851C44.6913 26.3669 45.2045 25.7493 45.9346 25.3323C46.6844 24.9152 47.7107 24.7066 49.0131 24.7066C50.4537 24.7066 51.5095 24.9473 52.1804 25.4285C52.8711 25.9098 53.325 26.6076 53.5421 27.522C53.7592 28.4203 53.8677 29.5032 53.8677 30.7705V31.9014H47.1187V34.6927C47.1187 35.2542 47.1779 35.7114 47.2963 36.0643C47.4343 36.4172 47.6416 36.6819 47.9178 36.8584C48.2139 37.0188 48.5889 37.099 49.0427 37.099C49.5164 37.099 49.8716 37.0108 50.1084 36.8344C50.3649 36.6418 50.5326 36.3771 50.6116 36.0403C50.7102 35.6873 50.7595 35.2783 50.7595 34.813V33.9708H53.8381V34.5002C53.8381 35.8959 53.473 36.9948 52.7428 37.7969C52.0127 38.5989 50.7694 39 49.0131 39ZM47.1187 30.5058H50.7595V29.2545C50.7595 28.677 50.7201 28.1957 50.6411 27.8107C50.5623 27.4097 50.3945 27.1129 50.1379 26.9204C49.9011 26.7119 49.5164 26.6076 48.9835 26.6076C48.4705 26.6076 48.0757 26.7039 47.7994 26.8964C47.543 27.0889 47.3654 27.4177 47.2666 27.8829C47.168 28.3321 47.1187 28.9578 47.1187 29.7598V30.5058ZM58.2161 38.3262C58.9462 38.7754 60.0118 39 61.413 39C62.6365 39 63.5837 38.8235 64.2546 38.4706C64.9454 38.1177 65.4189 37.6044 65.6755 36.9306C65.9518 36.2568 66.09 35.4547 66.09 34.5243V33.5618H63.2186V34.6927C63.2186 35.158 63.1792 35.5751 63.1002 35.944C63.041 36.313 62.8832 36.6017 62.6266 36.8103C62.3898 37.0028 62.005 37.099 61.4722 37.099C60.7617 37.099 60.2684 36.8985 59.9922 36.4974C59.7158 36.0964 59.5778 35.3023 59.5778 34.1152V29.7358C59.5778 28.9497 59.6172 28.3321 59.6962 27.8829C59.7948 27.4177 59.9823 27.0889 60.2585 26.8964C60.5348 26.7039 60.9294 26.6076 61.4426 26.6076C61.9163 26.6076 62.2812 26.6878 62.5378 26.8482C62.7943 27.0087 62.9719 27.2653 63.0707 27.6182C63.1693 27.9711 63.2186 28.4524 63.2186 29.062V29.9042H66.09V29.0861C66.09 28.1235 65.9617 27.3215 65.7052 26.6798C65.4486 26.022 64.975 25.5328 64.2843 25.2119C63.6133 24.8751 62.6562 24.7066 61.413 24.7066C60.0316 24.7066 58.9758 24.9312 58.2456 25.3804C57.5353 25.8135 57.0518 26.4471 56.7952 27.2814C56.5387 28.0995 56.4104 29.0941 56.4104 30.2651V33.4655C56.4104 34.5724 56.5288 35.543 56.7656 36.3771C57.0221 37.2113 57.5056 37.861 58.2161 38.3262Z" fill="#3700FF"/>
</svg>
